<svg id="visual" viewBox="0 0 960 540" width="960" height="540" xmlns="http://www.w3.org/2000/svg" xmlns:xlink="http://www.w3.org/1999/xlink" version="1.1"><rect x="0" y="0" width="960" height="540" fill="#001220"></rect><defs><linearGradient id="grad1_0" x1="43.8%" y1="100%" x2="100%" y2="0%"><stop offset="14.444444444444446%" stop-color="#fbae3c" stop-opacity="1"></stop><stop offset="85.55555555555554%" stop-color="#fbae3c" stop-opacity="1"></stop></linearGradient></defs><defs><linearGradient id="grad1_1" x1="43.8%" y1="100%" x2="100%" y2="0%"><stop offset="14.444444444444446%" stop-color="#fbae3c" stop-opacity="1"></stop><stop offset="85.55555555555554%" stop-color="#96446e" stop-opacity="1"></stop></linearGradient></defs><defs><linearGradient id="grad1_2" x1="43.8%" y1="100%" x2="100%" y2="0%"><stop offset="14.444444444444446%" stop-color="#001220" stop-opacity="1"></stop><stop offset="85.55555555555554%" stop-color="#96446e" stop-opacity="1"></stop></linearGradient></defs><defs><linearGradient id="grad2_0" x1="0%" y1="100%" x2="56.3%" y2="0%"><stop offset="14.444444444444446%" stop-color="#fbae3c" stop-opacity="1"></stop><stop offset="85.55555555555554%" stop-color="#fbae3c" stop-opacity="1"></stop></linearGradient></defs><defs><linearGradient id="grad2_1" x1="0%" y1="100%" x2="56.3%" y2="0%"><stop offset="14.444444444444446%" stop-color="#96446e" stop-opacity="1"></stop><stop offset="85.55555555555554%" stop-color="#fbae3c" stop-opacity="1"></stop></linearGradient></defs><defs><linearGradient id="grad2_2" x1="0%" y1="100%" x2="56.3%" y2="0%"><stop offset="14.444444444444446%" stop-color="#96446e" stop-opacity="1"></stop><stop offset="85.55555555555554%" stop-color="#001220" stop-opacity="1"></stop></linearGradient></defs><g transform="translate(960, 540)"><path d="M-405 0C-400.7 -81.7 -396.3 -163.3 -350.7 -202.5C-305.2 -241.7 -218.3 -238.3 -153 -265C-87.7 -291.7 -43.8 -348.3 0 -405L0 0Z" fill="#3d3056"></path><path d="M-270 0C-267.1 -54.4 -264.2 -108.9 -233.8 -135C-203.4 -161.1 -145.6 -158.9 -102 -176.7C-58.4 -194.4 -29.2 -232.2 0 -270L0 0Z" fill="#e1685e"></path><path d="M-135 0C-133.6 -27.2 -132.1 -54.4 -116.9 -67.5C-101.7 -80.6 -72.8 -79.4 -51 -88.3C-29.2 -97.2 -14.6 -116.1 0 -135L0 0Z" fill="#fbae3c"></path></g><g transform="translate(0, 0)"><path d="M405 0C396.5 74.5 388.1 149 350.7 202.5C313.4 256 247.3 288.5 184 318.7C120.7 348.9 60.4 377 0 405L0 0Z" fill="#3d3056"></path><path d="M270 0C264.4 49.7 258.7 99.3 233.8 135C208.9 170.7 164.8 192.3 122.7 212.5C80.5 232.6 40.2 251.3 0 270L0 0Z" fill="#e1685e"></path><path d="M135 0C132.2 24.8 129.4 49.7 116.9 67.5C104.5 85.3 82.4 96.2 61.3 106.2C40.2 116.3 20.1 125.7 0 135L0 0Z" fill="#fbae3c"></path></g></svg>