<svg width="1356" height="1549" viewBox="0 0 1356 1549" fill="none" xmlns="http://www.w3.org/2000/svg">
<path d="M1210.64 0H145.491C68.0256 0 0.243164 67.7688 0.243164 145.219V1403.78C0.243164 1481.23 68.0256 1549 145.491 1549H1210.64C1288.11 1549 1355.89 1481.23 1355.89 1403.78V145.219C1355.89 67.7688 1288.11 0 1210.64 0ZM387.571 1316.65C387.571 1336.01 368.205 1355.38 348.838 1355.38H232.64C213.274 1355.38 193.907 1336.01 193.907 1316.65V1200.48C193.907 1181.11 213.274 1161.75 232.64 1161.75H348.838C368.205 1161.75 387.571 1181.11 387.571 1200.48V1316.65V1316.65ZM387.571 929.4C387.571 948.763 368.205 968.125 348.838 968.125H232.64C213.274 968.125 193.907 948.763 193.907 929.4V813.225C193.907 793.863 213.274 774.5 232.64 774.5H348.838C368.205 774.5 387.571 793.863 387.571 813.225V929.4V929.4ZM774.899 1316.65C774.899 1336.01 755.533 1355.38 736.167 1355.38H619.968C600.602 1355.38 581.235 1336.01 581.235 1316.65V1200.48C581.235 1181.11 600.602 1161.75 619.968 1161.75H736.167C755.533 1161.75 774.899 1181.11 774.899 1200.48V1316.65ZM774.899 929.4C774.899 948.763 755.533 968.125 736.167 968.125H619.968C600.602 968.125 581.235 948.763 581.235 929.4V813.225C581.235 793.863 600.602 774.5 619.968 774.5H736.167C755.533 774.5 774.899 793.863 774.899 813.225V929.4ZM1162.23 1316.65C1162.23 1336.01 1142.86 1355.38 1123.49 1355.38H1007.3C987.93 1355.38 968.563 1336.01 968.563 1316.65V813.225C968.563 793.863 987.93 774.5 1007.3 774.5H1123.49C1142.86 774.5 1162.23 793.863 1162.23 813.225V1316.65V1316.65ZM1162.23 542.15C1162.23 561.513 1142.86 580.875 1123.49 580.875H232.64C213.274 580.875 193.907 561.513 193.907 542.15V232.35C193.907 212.988 213.274 193.625 232.64 193.625H1123.49C1142.86 193.625 1162.23 212.988 1162.23 232.35V542.15Z" fill="#9176DE"/>
</svg>
