<svg width="1613" height="1842" viewBox="0 0 1613 1842" fill="none" xmlns="http://www.w3.org/2000/svg">
<path d="M533.129 1035.89H389.24C365.498 1035.89 346.073 1016.47 346.073 992.732V848.858C346.073 825.119 365.498 805.696 389.24 805.696H533.129C556.87 805.696 576.295 825.119 576.295 848.858V992.732C576.295 1016.47 556.87 1035.89 533.129 1035.89ZM921.628 992.732V848.858C921.628 825.119 902.203 805.696 878.462 805.696H734.573C710.831 805.696 691.406 825.119 691.406 848.858V992.732C691.406 1016.47 710.831 1035.89 734.573 1035.89H878.462C902.203 1035.89 921.628 1016.47 921.628 992.732ZM1266.96 992.732V848.858C1266.96 825.119 1247.54 805.696 1223.79 805.696H1079.91C1056.16 805.696 1036.74 825.119 1036.74 848.858V992.732C1036.74 1016.47 1056.16 1035.89 1079.91 1035.89H1223.79C1247.54 1035.89 1266.96 1016.47 1266.96 992.732ZM921.628 1338.03V1194.16C921.628 1170.42 902.203 1150.99 878.462 1150.99H734.573C710.831 1150.99 691.406 1170.42 691.406 1194.16V1338.03C691.406 1361.77 710.831 1381.19 734.573 1381.19H878.462C902.203 1381.19 921.628 1361.77 921.628 1338.03ZM576.295 1338.03V1194.16C576.295 1170.42 556.87 1150.99 533.129 1150.99H389.24C365.498 1150.99 346.073 1170.42 346.073 1194.16V1338.03C346.073 1361.77 365.498 1381.19 389.24 1381.19H533.129C556.87 1381.19 576.295 1361.77 576.295 1338.03ZM1266.96 1338.03V1194.16C1266.96 1170.42 1247.54 1150.99 1223.79 1150.99H1079.91C1056.16 1150.99 1036.74 1170.42 1036.74 1194.16V1338.03C1036.74 1361.77 1056.16 1381.19 1079.91 1381.19H1223.79C1247.54 1381.19 1266.96 1361.77 1266.96 1338.03ZM1612.29 402.848V1668.94C1612.29 1764.26 1534.95 1841.59 1439.63 1841.59H173.407C78.0805 1841.59 0.740234 1764.26 0.740234 1668.94V402.848C0.740234 307.531 78.0805 230.199 173.407 230.199H346.073V43.1623C346.073 19.423 365.498 0 389.24 0H533.129C556.87 0 576.295 19.423 576.295 43.1623V230.199H1036.74V43.1623C1036.74 19.423 1056.16 0 1079.91 0H1223.79C1247.54 0 1266.96 19.423 1266.96 43.1623V230.199H1439.63C1534.95 230.199 1612.29 307.531 1612.29 402.848ZM1439.63 1647.36V575.497H173.407V1647.36C173.407 1659.23 183.119 1668.94 194.99 1668.94H1418.04C1429.92 1668.94 1439.63 1659.23 1439.63 1647.36Z" fill="#A62BB0"/>
</svg>
