<svg width="1508" height="1173" viewBox="0 0 1508 1173" fill="none" xmlns="http://www.w3.org/2000/svg">
<path d="M1089.07 418.891C1089.07 187.454 845.349 0 544.561 0C243.772 0 0.0517578 187.454 0.0517578 418.891C0.0517578 508.691 36.9632 591.422 99.5293 659.754C64.4504 738.82 6.59633 801.653 5.81099 802.439C0.0517578 808.46 -1.51894 817.362 1.88424 825.216C5.28742 833.07 12.6173 837.783 20.9944 837.783C116.807 837.783 196.127 805.58 253.196 772.331C337.49 813.435 437.229 837.783 544.561 837.783C845.349 837.783 1089.07 650.329 1089.07 418.891ZM1408.44 994.867C1471.01 926.797 1507.92 843.804 1507.92 754.004C1507.92 578.856 1367.87 428.84 1169.44 366.268C1171.79 383.547 1172.84 401.088 1172.84 418.891C1172.84 696.145 890.899 921.561 544.561 921.561C516.288 921.561 488.801 919.467 461.575 916.587C544.037 1067.13 737.756 1172.9 963.413 1172.9C1070.74 1172.9 1170.48 1148.81 1254.78 1107.44C1311.85 1140.69 1391.17 1172.9 1486.98 1172.9C1495.36 1172.9 1502.95 1167.92 1506.09 1160.33C1509.49 1152.74 1507.92 1143.84 1502.16 1137.55C1501.38 1136.77 1443.52 1074.19 1408.44 994.867Z" fill="#9176DE"/>
</svg>
