<svg width="1588" height="2118" viewBox="0 0 1588 2118" fill="none" xmlns="http://www.w3.org/2000/svg">
<path d="M926.333 562.594V0H99.25C44.249 0 0 44.2629 0 99.2812V2018.72C0 2073.74 44.249 2118 99.25 2118H1488.75C1543.75 2118 1588 2073.74 1588 2018.72V661.875H1025.58C970.996 661.875 926.333 617.198 926.333 562.594ZM1195.88 1456.17H926.333V1787.1C926.333 1823.67 896.724 1853.29 860.167 1853.29H727.833C691.276 1853.29 661.667 1823.67 661.667 1787.1V1456.17H392.12C333.066 1456.17 303.581 1384.64 345.514 1342.99L744.251 947.102C771.751 919.758 816.166 919.758 843.666 947.102L1242.4 1342.99C1284.38 1384.64 1254.93 1456.17 1195.88 1456.17ZM1559.05 434.355L1154.19 28.957C1135.59 10.3418 1110.36 0 1083.89 0H1058.67V529.5H1588V504.266C1588 478.205 1577.66 452.971 1559.05 434.355Z" fill="#699BF7"/>
</svg>
