<svg width="2682" height="2395" viewBox="0 0 2682 2395" fill="none" xmlns="http://www.w3.org/2000/svg">
<rect width="2682" height="2395" rx="250" fill="white" fill-opacity="0.15"/>
<path d="M2088.8 2002.5L2284.36 1663.77C2292.1 1650.36 2287.55 1633.35 2274.15 1625.61L1943.72 1434.84C1890.32 1404.01 1821.98 1422.35 1791.13 1475.78L1604.88 1798.38C1574.03 1851.81 1592.32 1920.17 1645.71 1951L1976.15 2141.77C1989.55 2149.51 2006.56 2144.95 2014.3 2131.54L2023.61 2115.41C2027.97 2107.85 2028.41 2098.96 2025.53 2091.38C2030.26 2073.41 2055.81 2029.16 2069.01 2016.07C2076.95 2014.88 2084.43 2010.06 2088.8 2002.5ZM1897.96 1588.54C1899.88 1585.21 1904.17 1584.06 1907.5 1585.98L2121.07 1709.29C2124.4 1711.21 2125.55 1715.5 2123.63 1718.83L2111.99 1738.99C2110.06 1742.31 2105.77 1743.47 2102.45 1741.55L1888.87 1618.24C1885.55 1616.32 1884.4 1612.03 1886.32 1608.7L1897.96 1588.54ZM1860.71 1653.06C1862.63 1649.73 1866.92 1648.58 1870.25 1650.5L2083.82 1773.81C2087.15 1775.73 2088.3 1780.02 2086.38 1783.35L2074.73 1803.51C2072.81 1806.83 2068.52 1807.99 2065.2 1806.07L1851.62 1682.76C1848.3 1680.84 1847.15 1676.55 1849.07 1673.22L1860.71 1653.06ZM1970.48 2052.48L1682.96 1886.48C1665.13 1876.18 1659.05 1853.45 1669.35 1835.6C1679.6 1817.86 1702.48 1811.72 1720.21 1821.96L2007.73 1987.96C1995.87 2004.09 1978.52 2034.13 1970.48 2052.48Z" fill="#9747FF"/>
<path d="M1144.61 524.62L761.108 315.979C753.21 311.857 744.203 310.362 735.397 311.709C726.59 313.057 718.443 317.179 712.14 323.475L470.253 565.361C462.911 553.312 454.191 542.158 444.271 532.124C395.229 483.082 328.921 469.813 296.22 502.514C263.519 535.214 276.788 601.523 325.83 650.564C374.872 699.606 441.18 712.875 473.881 680.174L690.108 463.947L996.388 631.429L825.565 802.251C818.232 790.195 809.515 779.037 799.592 769.005C750.55 719.963 684.242 706.694 651.541 739.395C618.841 772.095 632.11 838.403 681.151 887.445C730.193 936.487 796.492 949.765 829.202 917.055L1154.91 591.344C1159.56 586.691 1163.04 581.011 1165.08 574.762C1167.12 568.513 1167.66 561.871 1166.66 555.374C1165.66 548.877 1163.14 542.707 1159.31 537.365C1155.48 532.022 1150.44 527.656 1144.61 524.62V524.62Z" fill="#4ECB71"/>
<path d="M2221.62 340.652C2198.1 317.041 2163.55 307.694 2131.49 316.265C2073.35 331.766 1871.59 448.25 1871.59 448.25C1871.59 448.25 1669.84 564.733 1627.35 607.331C1603.89 630.815 1594.71 665.405 1603.4 697.585C1619.11 755.93 1680.01 861.423 1680.01 861.423C1680.01 861.423 1740.92 966.916 1783.59 1009.69C1807.12 1033.31 1841.14 1041.74 1873.2 1033.17C1931.34 1017.66 2133.09 901.181 2133.09 901.181C2133.09 901.181 2334.85 784.698 2377.34 742.1C2400.8 718.618 2410.5 684.941 2401.82 652.762C2386.11 594.416 2325.2 488.923 2325.2 488.923C2325.2 488.923 2264.3 383.43 2221.62 340.652V340.652ZM1991.92 809.05L1881.32 617.491L2105.25 615.915L1991.92 809.05V809.05Z" fill="#CB4E4E"/>
<path d="M938.614 1488.22L470.86 1632.75C432.305 1644.65 397.295 1665.92 368.948 1694.65C340.6 1723.38 319.795 1758.68 308.384 1797.42C296.972 1836.16 295.309 1877.12 303.542 1916.67C311.775 1956.22 329.649 1993.12 355.573 2024.09C381.496 2055.06 414.665 2079.14 452.126 2094.19C489.587 2109.23 530.177 2114.77 570.284 2110.32C610.39 2105.87 648.769 2091.56 682.002 2068.66C715.234 2045.77 742.291 2015 760.762 1979.1L894.511 1937.78C930.01 1957 969.701 1967.14 1010.05 1967.3C1050.4 1967.46 1090.16 1957.63 1125.79 1938.69C1161.41 1919.75 1191.8 1892.29 1214.25 1858.74C1236.7 1825.19 1250.51 1786.61 1254.45 1746.42C1258.4 1706.22 1252.35 1665.67 1236.85 1628.37C1221.35 1591.08 1196.89 1558.18 1165.62 1532.63C1134.36 1507.07 1097.28 1489.65 1057.67 1481.9C1018.07 1474.15 977.166 1476.32 938.614 1488.22V1488.22ZM677.212 1844.65C678.651 1849.3 678.183 1854.34 675.911 1858.65C673.64 1862.96 669.751 1866.19 665.1 1867.62L589.106 1891.1L612.611 1967.18C614.05 1971.84 613.582 1976.87 611.311 1981.18C609.039 1985.49 605.15 1988.72 600.499 1990.15L565.425 2000.99C560.774 2002.43 555.742 2001.96 551.436 1999.68C547.13 1997.4 543.902 1993.51 542.464 1988.85L518.958 1912.78L442.965 1936.26C438.314 1937.69 433.282 1937.22 428.976 1934.95C424.67 1932.67 421.442 1928.77 420.004 1924.12L409.155 1889.01C407.716 1884.35 408.184 1879.31 410.456 1875C412.727 1870.7 416.617 1867.47 421.268 1866.03L497.261 1842.55L473.756 1766.48C472.317 1761.82 472.785 1756.78 475.057 1752.47C477.328 1748.17 481.217 1744.94 485.868 1743.5L520.942 1732.66C525.593 1731.23 530.625 1731.7 534.932 1733.97C539.238 1736.25 542.465 1740.15 543.904 1744.8L567.409 1820.88L643.402 1797.4C648.053 1795.96 653.086 1796.43 657.392 1798.71C661.698 1800.99 664.925 1804.88 666.364 1809.54L677.212 1844.65ZM1027.23 1858.31C1015.67 1861.88 1003.31 1861.94 991.707 1858.48C980.108 1855.02 969.791 1848.19 962.063 1838.87C954.335 1829.54 949.541 1818.13 948.29 1806.08C947.038 1794.03 949.384 1781.89 955.03 1771.18C960.677 1760.47 969.371 1751.68 980.012 1745.91C990.654 1740.15 1002.77 1737.68 1014.82 1738.81C1026.87 1739.94 1038.31 1744.62 1047.71 1752.26C1057.11 1759.9 1064.03 1770.15 1067.61 1781.72C1072.4 1797.25 1070.84 1814.03 1063.27 1828.39C1055.7 1842.76 1042.74 1853.52 1027.23 1858.31V1858.31ZM1077.37 1688.96C1065.81 1692.53 1053.44 1692.59 1041.84 1689.13C1030.24 1685.67 1019.93 1678.85 1012.2 1669.52C1004.47 1660.19 999.677 1648.79 998.426 1636.74C997.174 1624.69 999.52 1612.54 1005.17 1601.83C1010.81 1591.12 1019.51 1582.33 1030.15 1576.57C1040.79 1570.81 1052.9 1568.33 1064.95 1569.46C1077 1570.59 1088.45 1575.27 1097.85 1582.91C1107.24 1590.55 1114.17 1600.8 1117.74 1612.38C1122.54 1627.9 1120.98 1644.69 1113.41 1659.05C1105.83 1673.41 1092.87 1684.17 1077.37 1688.96Z" fill="#00FFFF"/>
</svg>
