<svg width="2549" height="2205" viewBox="0 0 2549 2205" fill="none" xmlns="http://www.w3.org/2000/svg">
<rect y="136" width="2549" height="2069" rx="250" fill="white" fill-opacity="0.15"/>
<path d="M2034.8 1914.5L2230.36 1575.77C2238.1 1562.36 2233.55 1545.35 2220.15 1537.61L1889.72 1346.84C1836.32 1316.01 1767.98 1334.35 1737.13 1387.78L1550.88 1710.38C1520.03 1763.81 1538.32 1832.17 1591.71 1863L1922.15 2053.77C1935.55 2061.51 1952.56 2056.95 1960.3 2043.54L1969.61 2027.41C1973.97 2019.85 1974.41 2010.96 1971.53 2003.38C1976.26 1985.41 2001.81 1941.16 2015.01 1928.07C2022.95 1926.88 2030.43 1922.06 2034.8 1914.5ZM1843.96 1500.54C1845.88 1497.21 1850.17 1496.06 1853.5 1497.98L2067.07 1621.29C2070.4 1623.21 2071.55 1627.5 2069.63 1630.83L2057.99 1650.99C2056.06 1654.31 2051.77 1655.47 2048.45 1653.55L1834.87 1530.24C1831.55 1528.32 1830.4 1524.03 1832.32 1520.7L1843.96 1500.54ZM1806.71 1565.06C1808.63 1561.73 1812.92 1560.58 1816.25 1562.5L2029.82 1685.81C2033.15 1687.73 2034.3 1692.02 2032.38 1695.35L2020.73 1715.51C2018.81 1718.83 2014.52 1719.99 2011.2 1718.07L1797.62 1594.76C1794.3 1592.84 1793.15 1588.55 1795.07 1585.22L1806.71 1565.06ZM1916.48 1964.48L1628.96 1798.48C1611.13 1788.18 1605.05 1765.45 1615.35 1747.6C1625.6 1729.86 1648.48 1723.72 1666.21 1733.96L1953.73 1899.96C1941.87 1916.09 1924.52 1946.13 1916.48 1964.48Z" fill="#9747FF"/>
<path d="M1090.61 436.62L707.108 227.979C699.21 223.857 690.203 222.362 681.397 223.709C672.59 225.057 664.443 229.179 658.14 235.475L416.253 477.361C408.911 465.312 400.191 454.158 390.271 444.124C341.229 395.082 274.921 381.813 242.22 414.514C209.519 447.214 222.788 513.523 271.83 562.564C320.872 611.606 387.18 624.875 419.881 592.174L636.108 375.947L942.388 543.429L771.565 714.251C764.232 702.195 755.515 691.037 745.592 681.005C696.55 631.963 630.242 618.694 597.541 651.395C564.841 684.095 578.11 750.403 627.151 799.445C676.193 848.487 742.492 861.765 775.202 829.055L1100.91 503.344C1105.56 498.691 1109.04 493.011 1111.08 486.762C1113.12 480.513 1113.66 473.871 1112.66 467.374C1111.66 460.877 1109.14 454.707 1105.31 449.365C1101.48 444.022 1096.44 439.656 1090.61 436.62V436.62Z" fill="#4ECB71"/>
<path d="M2167.62 252.652C2144.1 229.041 2109.55 219.694 2077.49 228.265C2019.35 243.766 1817.59 360.25 1817.59 360.25C1817.59 360.25 1615.84 476.733 1573.35 519.331C1549.89 542.815 1540.71 577.405 1549.4 609.585C1565.11 667.93 1626.01 773.423 1626.01 773.423C1626.01 773.423 1686.92 878.916 1729.59 921.694C1753.12 945.306 1787.14 953.738 1819.2 945.167C1877.34 929.665 2079.09 813.181 2079.09 813.181C2079.09 813.181 2280.85 696.698 2323.34 654.1C2346.8 630.618 2356.5 596.941 2347.82 564.762C2332.11 506.416 2271.2 400.923 2271.2 400.923C2271.2 400.923 2210.3 295.43 2167.62 252.652V252.652ZM1937.92 721.05L1827.32 529.491L2051.25 527.915L1937.92 721.05V721.05Z" fill="#CB4E4E"/>
<path d="M884.614 1400.22L416.86 1544.75C378.305 1556.65 343.295 1577.92 314.948 1606.65C286.6 1635.38 265.795 1670.68 254.384 1709.42C242.972 1748.16 241.309 1789.12 249.542 1828.67C257.775 1868.22 275.649 1905.12 301.573 1936.09C327.496 1967.06 360.665 1991.14 398.126 2006.19C435.587 2021.23 476.177 2026.77 516.284 2022.32C556.39 2017.87 594.769 2003.56 628.002 1980.66C661.234 1957.77 688.291 1927 706.762 1891.1L840.511 1849.78C876.01 1869 915.701 1879.14 956.052 1879.3C996.403 1879.46 1036.16 1869.63 1071.79 1850.69C1107.41 1831.75 1137.8 1804.29 1160.25 1770.74C1182.7 1737.19 1196.51 1698.61 1200.45 1658.42C1204.4 1618.22 1198.35 1577.67 1182.85 1540.37C1167.35 1503.08 1142.89 1470.18 1111.62 1444.63C1080.36 1419.07 1043.28 1401.65 1003.67 1393.9C964.066 1386.15 923.166 1388.32 884.614 1400.22V1400.22ZM623.212 1756.65C624.651 1761.3 624.183 1766.34 621.911 1770.65C619.64 1774.96 615.751 1778.19 611.1 1779.62L535.106 1803.1L558.611 1879.18C560.05 1883.84 559.582 1888.87 557.311 1893.18C555.039 1897.49 551.15 1900.72 546.499 1902.15L511.425 1912.99C506.774 1914.43 501.742 1913.96 497.436 1911.68C493.13 1909.4 489.902 1905.51 488.464 1900.85L464.958 1824.78L388.965 1848.26C384.314 1849.69 379.282 1849.22 374.976 1846.95C370.67 1844.67 367.442 1840.77 366.004 1836.12L355.155 1801.01C353.716 1796.35 354.184 1791.31 356.456 1787C358.727 1782.7 362.617 1779.47 367.268 1778.03L443.261 1754.55L419.756 1678.48C418.317 1673.82 418.785 1668.78 421.057 1664.47C423.328 1660.17 427.217 1656.94 431.868 1655.5L466.942 1644.66C471.593 1643.23 476.625 1643.7 480.932 1645.97C485.238 1648.25 488.465 1652.15 489.904 1656.8L513.409 1732.88L589.402 1709.4C594.053 1707.96 599.086 1708.43 603.392 1710.71C607.698 1712.99 610.925 1716.88 612.364 1721.54L623.212 1756.65ZM973.231 1770.31C961.67 1773.88 949.307 1773.94 937.707 1770.48C926.108 1767.02 915.791 1760.19 908.063 1750.87C900.335 1741.54 895.541 1730.13 894.29 1718.08C893.038 1706.03 895.384 1693.89 901.03 1683.18C906.677 1672.47 915.371 1663.68 926.012 1657.91C936.654 1652.15 948.766 1649.68 960.816 1650.81C972.866 1651.94 984.313 1656.62 993.71 1664.26C1003.11 1671.9 1010.03 1682.15 1013.61 1693.72C1018.4 1709.25 1016.84 1726.03 1009.27 1740.39C1001.7 1754.76 988.735 1765.52 973.231 1770.31V1770.31ZM1023.37 1600.96C1011.81 1604.53 999.443 1604.59 987.843 1601.13C976.244 1597.67 965.927 1590.85 958.199 1581.52C950.471 1572.19 945.677 1560.79 944.426 1548.74C943.174 1536.69 945.52 1524.54 951.166 1513.83C956.813 1503.12 965.507 1494.33 976.149 1488.57C986.79 1482.81 998.902 1480.33 1010.95 1481.46C1023 1482.59 1034.45 1487.27 1043.85 1494.91C1053.24 1502.55 1060.17 1512.8 1063.74 1524.38C1068.54 1539.9 1066.98 1556.69 1059.41 1571.05C1051.83 1585.41 1038.87 1596.17 1023.37 1600.96Z" fill="#00FFFF"/>
</svg>
