<svg width="1791" height="1592" viewBox="0 0 1791 1592" fill="none" xmlns="http://www.w3.org/2000/svg">
<path d="M1615.14 897.524C1486.04 897.524 1430.13 995.759 1359.99 995.759C1173.51 995.759 1343.25 447.75 1343.25 447.75C1343.25 447.75 732.917 696.5 732.917 437.498C732.917 326.099 845.75 293.69 845.75 170.139C845.75 59.7497 758.33 0 654.645 0C546.892 0 448.288 58.7392 448.288 175.201C448.288 303.817 546.889 359.515 546.889 429.392C546.892 645.876 0 518.513 0 518.513V1554.67C0 1554.67 555.443 1682.3 555.443 1465.55C555.443 1395.67 431.068 1340.84 431.068 1212.23C431.068 1095.76 522.017 1037.03 628.753 1037.03C733.455 1037.03 820.875 1096.78 820.875 1207.16C820.875 1330.71 708.042 1363.12 708.042 1474.52C708.042 1663.58 1111.25 1554.53 1271.55 1554.53C1271.55 1554.53 1163.58 1181.09 1351.86 1181.09C1463.68 1181.09 1496.21 1293.5 1620.22 1293.5C1731.03 1293.5 1791 1206.41 1791 1102.1C1791 995.759 1732.04 897.524 1615.14 897.524V897.524Z" fill="#2BA9C5"/>
</svg>
